<?xml version="1.0" encoding="UTF-8" standalone="no"?>
<!DOCTYPE svg PUBLIC "-//W3C//DTD SVG 1.0//EN" "http://www.w3.org/TR/2001/REC-SVG-20010904/DTD/svg10.dtd">
<!-- Generated by Microsoft Visio 11.0, SVG Export, v1.0 Education Feature Graphics.svg Types of FA -->
<svg xmlns="http://www.w3.org/2000/svg" xmlns:xlink="http://www.w3.org/1999/xlink" xmlns:ev="http://www.w3.org/2001/xml-events"
		xmlns:v="http://schemas.microsoft.com/visio/2003/SVGExtensions/" width="11in" height="8.5in" viewBox="0 0 792 612"
		xml:space="preserve" color-interpolation-filters="sRGB" class="st14">
	<v:documentProperties v:langID="1033" v:viewMarkup="false">
		<v:userDefs>
			<v:ud v:nameU="msvNoAutoConnect" v:val="VT0(1):26"/>
		</v:userDefs>
	</v:documentProperties>

	<style type="text/css">
	<![CDATA[
		.st1 {fill:#ea516b;stroke:none;stroke-linecap:round;stroke-linejoin:round;stroke-width:0.24}
		.st2 {fill:#ffffff;font-family:Segoe UI;font-size:3em}
		.st3 {fill:#00ee6b;stroke:#00b050;stroke-linecap:round;stroke-linejoin:round;stroke-width:3}
		.st4 {fill:#ffffff;font-family:Segoe UI;font-size:1.99999em}
		.st5 {font-size:1em}
		.st6 {fill:none;stroke:#00b050;stroke-linecap:round;stroke-linejoin:round;stroke-width:2.25}
		.st7 {fill:#ffffff;font-family:Segoe UI;font-size:1.33333em;font-weight:bold}
		.st8 {font-size:1em;font-style:italic;font-weight:normal}
		.st9 {font-size:1em;font-weight:normal}
		.st10 {stroke:#00b050;stroke-linecap:round;stroke-linejoin:round;stroke-width:1.5}
		.st11 {fill:none;stroke:none;stroke-linecap:round;stroke-linejoin:round;stroke-width:0.24}
		.st12 {fill:#ffffff;font-family:Segoe UI;font-size:1.00001em}
		.st13 {font-size:0.874996em;font-weight:normal}
		.st14 {fill:none;fill-rule:evenodd;font-size:12px;overflow:visible;stroke-linecap:square;stroke-miterlimit:3}
	]]>
	</style>

	<g v:mID="0" v:index="1" v:groupContext="foregroundPage">
		<title>Types of FA</title>
		<v:pageProperties v:drawingScale="1" v:pageScale="1" v:drawingUnits="19" v:shadowOffsetX="9" v:shadowOffsetY="-9"/>
		<v:layer v:name="Master" v:index="0" v:lock="true"/>
		<g id="shape1-1" v:mID="1" v:groupContext="shape" v:layerMember="0" transform="translate(18,-18)">
			<title>Rectangle</title>
			<desc>Types of Financial Aid</desc>
			<v:userDefs>
				<v:ud v:nameU="visVersion" v:val="VT0(14):26"/>
			</v:userDefs>
			<v:textBlock v:margins="rect(4,4,4,4)" v:verticalAlign="0"/>
			<v:textRect cx="378" cy="324" width="756" height="576"/>
			<rect x="0" y="36" width="756" height="576" class="st1"/>
			<text x="205.81" y="72.4" class="st2" v:langID="1033"><v:paragraph v:horizAlign="1"/><v:tabList/>Types of Financial Aid</text>		</g>
		<g id="shape2-4" v:mID="2" v:groupContext="shape" v:layerMember="0" transform="translate(54,-36)">
			<title>Rounded rectangle</title>
			<desc>Grants and Scholarships</desc>
			<v:userDefs>
				<v:ud v:nameU="visVersion" v:val="VT0(14):26"/>
			</v:userDefs>
			<v:textBlock v:margins="rect(4,4,4,4)" v:verticalAlign="0"/>
			<v:textRect cx="108" cy="360" width="216" height="504"/>
			<path d="M207 612 A9.00007 9.00007 -180 0 0 216 603 L216 117 A9.00007 9.00007 -180 0 0 207 108 L9 108 A9.00007 9.00007
						 -180 0 0 -0 117 L0 603 A9.00007 9.00007 -180 0 0 9 612 L207 612 Z" class="st3"/>
			<text x="50.29" y="133.6" class="st4" v:langID="1033"><v:paragraph v:horizAlign="1"/><v:tabList/>Grants and <tspan
						x="42.14" dy="1.2em" class="st5">Scholarships</tspan></text>		</g>
		<g id="shape3-8" v:mID="3" v:groupContext="shape" v:layerMember="0" transform="translate(288,-36)">
			<title>Rounded rectangle.3</title>
			<desc>Work</desc>
			<v:userDefs>
				<v:ud v:nameU="visVersion" v:val="VT0(14):26"/>
			</v:userDefs>
			<v:textBlock v:margins="rect(4,4,4,4)" v:verticalAlign="0"/>
			<v:textRect cx="108" cy="360" width="216" height="504"/>
			<path d="M207 612 A9.00007 9.00007 -180 0 0 216 603 L216 117 A9.00007 9.00007 -180 0 0 207 108 L9 108 A9.00007 9.00007
						 -180 0 0 -0 117 L0 603 A9.00007 9.00007 -180 0 0 9 612 L207 612 Z" class="st3"/>
			<text x="79.62" y="133.6" class="st4" v:langID="1033"><v:paragraph v:horizAlign="1"/><v:tabList/>Work</text>		</g>
		<g id="shape4-11" v:mID="4" v:groupContext="shape" v:layerMember="0" transform="translate(522,-36)">
			<title>Rounded rectangle.4</title>
			<desc>Loans</desc>
			<v:userDefs>
				<v:ud v:nameU="visVersion" v:val="VT0(14):26"/>
			</v:userDefs>
			<v:textBlock v:margins="rect(4,4,4,4)" v:verticalAlign="0"/>
			<v:textRect cx="108" cy="360" width="216" height="504"/>
			<path d="M207 612 A9.00007 9.00007 -180 0 0 216 603 L216 117 A9.00007 9.00007 -180 0 0 207 108 L9 108 A9.00007 9.00007
						 -180 0 0 -0 117 L0 603 A9.00007 9.00007 -180 0 0 9 612 L207 612 Z" class="st3"/>
			<text x="77.33" y="133.6" class="st4" v:langID="1033"><v:paragraph v:horizAlign="1"/><v:tabList/>Loans</text>		</g>
		<g id="shape5-14" v:mID="5" v:groupContext="shape" transform="translate(72,-301.5)">
			<title>Rectangle.5</title>
			<desc>Government FEDERAL Pell SEOG Iraq and Afghanistan ROTC GI STA...</desc>
			<v:userDefs>
				<v:ud v:nameU="visVersion" v:val="VT0(14):26"/>
			</v:userDefs>
			<v:textBlock v:margins="rect(4,4,4,4)" v:verticalAlign="0"/>
			<v:textRect cx="90" cy="522" width="180" height="180"/>
			<rect x="0" y="432" width="180" height="180" class="st6"/>
			<text x="43.13" y="450.4" class="st7" v:langID="1033"><v:paragraph v:horizAlign="1"/><v:tabList/>Government<v:newlineChar/><v:paragraph/><tspan
						x="4" dy="1.2em" class="st8">FEDERAL<v:newlineChar/><v:paragraph/></tspan><tspan x="4" dy="1.2em"
						class="st9">Pell<v:newlineChar/></tspan><tspan x="4" dy="1.2em" class="st9">SEOG<v:newlineChar/></tspan><tspan
						x="4" dy="1.2em" class="st9">Iraq and <v:lf/></tspan><tspan x="4" dy="1.2em" class="st9">Afghanistan<v:newlineChar/></tspan><tspan
						x="4" dy="1.2em" class="st9">ROTC<v:newlineChar/></tspan><tspan x="4" dy="1.2em" class="st9">GI<v:newlineChar/></tspan><tspan
						x="4" dy="1.2em" class="st8">STATE AND LOCAL</tspan></text>		</g>
		<g id="shape6-25" v:mID="6" v:groupContext="shape" transform="translate(72,-441)">
			<title>Sheet.6</title>
			<path d="M0 612 L180 612" class="st10"/>
		</g>
		<g id="shape7-28" v:mID="7" v:groupContext="shape" transform="translate(72,-459)">
			<title>Sheet.7</title>
			<path d="M0 612 L180 612" class="st10"/>
		</g>
		<g id="shape8-31" v:mID="8" v:groupContext="shape" transform="translate(72,-326.25)">
			<title>Sheet.8</title>
			<path d="M0 612 L180 612" class="st10"/>
		</g>
		<g id="shape9-34" v:mID="9" v:groupContext="shape" transform="translate(72,-402.75)">
			<title>Sheet.9</title>
			<path d="M0 612 L180 612" class="st10"/>
		</g>
		<g id="shape10-37" v:mID="10" v:groupContext="shape" transform="translate(72,-361.688)">
			<title>Sheet.10</title>
			<path d="M0 612 L180 612" class="st10"/>
		</g>
		<g id="shape11-40" v:mID="11" v:groupContext="shape" transform="translate(200.344,-418.5)">
			<title>Rectangle.11</title>
			<desc>Need</desc>
			<v:userDefs>
				<v:ud v:nameU="visVersion" v:val="VT0(14):26"/>
			</v:userDefs>
			<v:textBlock v:margins="rect(4,4,4,4)"/>
			<v:textRect cx="20.3438" cy="603" width="40.69" height="18"/>
			<rect x="0" y="594" width="40.6875" height="18" class="st11"/>
			<text x="6.05" y="606.6" class="st12" v:langID="1033"><v:paragraph v:horizAlign="1"/><v:tabList/>Need</text>		</g>
		<g id="shape12-43" v:mID="12" v:groupContext="shape" transform="translate(180,-373.5)">
			<title>Rectangle.12</title>
			<desc>Situational</desc>
			<v:userDefs>
				<v:ud v:nameU="visVersion" v:val="VT0(14):26"/>
			</v:userDefs>
			<v:textBlock v:margins="rect(4,4,4,4)"/>
			<v:textRect cx="33.4219" cy="603" width="66.85" height="18"/>
			<rect x="0" y="594" width="66.8438" height="18" class="st11"/>
			<text x="5.4" y="606.6" class="st12" v:langID="1033"><v:paragraph v:horizAlign="1"/><v:tabList/>Situational</text>		</g>
		<g id="shape13-46" v:mID="13" v:groupContext="shape" transform="translate(185.813,-337.5)">
			<title>Rectangle.13</title>
			<desc>Service</desc>
			<v:userDefs>
				<v:ud v:nameU="visVersion" v:val="VT0(14):26"/>
			</v:userDefs>
			<v:textBlock v:margins="rect(4,4,4,4)"/>
			<v:textRect cx="31.9688" cy="603" width="63.94" height="18"/>
			<rect x="0" y="594" width="63.9375" height="18" class="st11"/>
			<text x="13.32" y="606.6" class="st12" v:langID="1033"><v:paragraph v:horizAlign="1"/><v:tabList/>Service</text>		</g>
		<g id="shape14-49" v:mID="14" v:groupContext="shape" transform="translate(72,-45)">
			<title>Rectangle.14</title>
			<desc>Employers</desc>
			<v:userDefs>
				<v:ud v:nameU="visVersion" v:val="VT0(14):26"/>
			</v:userDefs>
			<v:textBlock v:margins="rect(4,4,4,4)" v:verticalAlign="0"/>
			<v:textRect cx="90" cy="598.5" width="180" height="27"/>
			<rect x="0" y="585" width="180" height="27" class="st6"/>
			<text x="50.95" y="603.4" class="st7" v:langID="1033"><v:paragraph v:horizAlign="1"/><v:tabList/>Employers</text>		</g>
		<g id="shape15-52" v:mID="15" v:groupContext="shape" transform="translate(72,-180)">
			<title>Rectangle.15</title>
			<desc>Private Need Academic Athletic Service Demographic/Other</desc>
			<v:userDefs>
				<v:ud v:nameU="visVersion" v:val="VT0(14):26"/>
			</v:userDefs>
			<v:textBlock v:margins="rect(4,4,4,4)" v:verticalAlign="0"/>
			<v:textRect cx="90" cy="553.5" width="180" height="117"/>
			<rect x="0" y="495" width="180" height="117" class="st6"/>
			<text x="63.55" y="513.4" class="st7" v:langID="1033"><v:paragraph v:horizAlign="1"/><v:tabList/>Private<v:newlineChar/><v:paragraph/><tspan
						x="4" dy="1.243em" class="st13">Need<v:newlineChar/></tspan><tspan x="4" dy="1.2em" class="st13">Academic<v:newlineChar/></tspan><tspan
						x="4" dy="1.2em" class="st13">Athletic<v:newlineChar/></tspan><tspan x="4" dy="1.2em" class="st13">Service<v:newlineChar/></tspan><tspan
						x="4" dy="1.329em" class="st13">Demographic</tspan><tspan class="st13">/</tspan><tspan class="st13">Other</tspan></text>		</g>
		<g id="shape16-62" v:mID="16" v:groupContext="shape" transform="translate(72,-76.5)">
			<title>Rectangle.16</title>
			<desc>School Need Academic Athletic Other</desc>
			<v:userDefs>
				<v:ud v:nameU="visVersion" v:val="VT0(14):26"/>
			</v:userDefs>
			<v:textBlock v:margins="rect(4,4,4,4)" v:verticalAlign="0"/>
			<v:textRect cx="90" cy="562.5" width="180" height="99"/>
			<rect x="0" y="513" width="180" height="99" class="st6"/>
			<text x="64.8" y="531.4" class="st7" v:langID="1033"><v:paragraph v:horizAlign="1"/><v:tabList/>School<v:newlineChar/><v:paragraph/><tspan
						x="4" dy="1.243em" class="st13">Need<v:newlineChar/></tspan><tspan x="4" dy="1.2em" class="st13">Academic<v:newlineChar/></tspan><tspan
						x="4" dy="1.2em" class="st13">Athletic<v:newlineChar/></tspan><tspan x="4" dy="1.329em" class="st13">Other</tspan></text>		</g>
		<g id="shape17-69" v:mID="17" v:groupContext="shape" transform="translate(306,-438.75)">
			<title>Rectangle.17</title>
			<desc>Government Federal Work Study</desc>
			<v:userDefs>
				<v:ud v:nameU="visVersion" v:val="VT0(14):26"/>
			</v:userDefs>
			<v:textBlock v:margins="rect(4,4,4,4)" v:verticalAlign="0"/>
			<v:textRect cx="90" cy="579.375" width="180" height="65.25"/>
			<rect x="0" y="546.75" width="180" height="65.25" class="st6"/>
			<text x="43.13" y="565.15" class="st7" v:langID="1033"><v:paragraph v:horizAlign="1"/><v:tabList/>Government<v:newlineChar/><v:paragraph/><tspan
						x="4" dy="1.2em" class="st9">Federal Work <v:lf/></tspan><tspan x="4" dy="1.2em" class="st9">Study</tspan></text>		</g>
		<g id="shape18-74" v:mID="18" v:groupContext="shape" transform="translate(306,-482.625)">
			<title>Sheet.18</title>
			<path d="M0 612 L180 612" class="st10"/>
		</g>
		<g id="shape19-77" v:mID="19" v:groupContext="shape" transform="translate(441,-450)">
			<title>Rectangle.19</title>
			<desc>Need</desc>
			<v:userDefs>
				<v:ud v:nameU="visVersion" v:val="VT0(14):26"/>
			</v:userDefs>
			<v:textBlock v:margins="rect(4,4,4,4)"/>
			<v:textRect cx="20.3438" cy="603" width="40.69" height="18"/>
			<rect x="0" y="594" width="40.6875" height="18" class="st11"/>
			<text x="6.05" y="606.6" class="st12" v:langID="1033"><v:paragraph v:horizAlign="1"/><v:tabList/>Need</text>		</g>
		<g id="shape20-80" v:mID="20" v:groupContext="shape" transform="translate(306,-367.875)">
			<title>Rectangle.20</title>
			<desc>School TA and Assistantships</desc>
			<v:userDefs>
				<v:ud v:nameU="visVersion" v:val="VT0(14):26"/>
			</v:userDefs>
			<v:textBlock v:margins="rect(4,4,4,4)" v:verticalAlign="0"/>
			<v:textRect cx="90" cy="579.375" width="180" height="65.25"/>
			<rect x="0" y="546.75" width="180" height="65.25" class="st6"/>
			<text x="64.8" y="565.15" class="st7" v:langID="1033"><v:paragraph v:horizAlign="1"/><v:tabList/>School<v:newlineChar/><v:paragraph/><tspan
						x="4" dy="1.2em" class="st9">TA and <v:lf/></tspan><tspan x="4" dy="1.2em" class="st9">Assistantships</tspan></text>		</g>
		<g id="shape21-85" v:mID="21" v:groupContext="shape" transform="translate(432,-383.625)">
			<title>Rectangle.21</title>
			<desc>General</desc>
			<v:userDefs>
				<v:ud v:nameU="visVersion" v:val="VT0(14):26"/>
			</v:userDefs>
			<v:textBlock v:margins="rect(4,4,4,4)"/>
			<v:textRect cx="25.3594" cy="603" width="50.72" height="18"/>
			<rect x="0" y="594" width="50.7187" height="18" class="st11"/>
			<text x="4.98" y="606.6" class="st12" v:langID="1033"><v:paragraph v:horizAlign="1"/><v:tabList/>General</text>		</g>
		<g id="shape22-88" v:mID="22" v:groupContext="shape" transform="translate(306,-411.75)">
			<title>Sheet.22</title>
			<path d="M0 612 L180 612" class="st10"/>
		</g>
		<g id="shape23-91" v:mID="23" v:groupContext="shape" transform="translate(535.5,-274.5)">
			<title>Rectangle.23</title>
			<desc>Private</desc>
			<v:userDefs>
				<v:ud v:nameU="visVersion" v:val="VT0(14):26"/>
			</v:userDefs>
			<v:textBlock v:margins="rect(4,4,4,4)" v:verticalAlign="0"/>
			<v:textRect cx="90" cy="598.5" width="180" height="27"/>
			<rect x="0" y="585" width="180" height="27" class="st6"/>
			<text x="63.55" y="603.4" class="st7" v:langID="1033"><v:paragraph v:horizAlign="1"/><v:tabList/>Private</text>		</g>
		<g id="shape24-94" v:mID="24" v:groupContext="shape" transform="translate(535.5,-306)">
			<title>Rectangle.24</title>
			<desc>Government FEDERAL Direct Subsidized Perkins Direct Unsubsidi...</desc>
			<v:userDefs>
				<v:ud v:nameU="visVersion" v:val="VT0(14):26"/>
			</v:userDefs>
			<v:textBlock v:margins="rect(4,4,4,4)" v:verticalAlign="0"/>
			<v:textRect cx="90" cy="513" width="180" height="198"/>
			<rect x="0" y="414" width="180" height="198" class="st6"/>
			<text x="43.13" y="432.4" class="st7" v:langID="1033"><v:paragraph v:horizAlign="1"/><v:tabList/>Government<v:newlineChar/><v:paragraph/><tspan
						x="4" dy="1.2em" class="st8">FEDERAL<v:newlineChar/></tspan><tspan x="4" dy="1.2em" class="st9">Direct Subsidized<v:newlineChar/></tspan><tspan
						x="4" dy="1.2em" class="st9">Perkins<v:newlineChar/></tspan><tspan x="4" dy="1.2em" class="st9">Direct <v:lf/></tspan><tspan
						x="4" dy="1.2em" class="st9">Unsubsidized<v:newlineChar/></tspan><tspan x="4" dy="1.2em" class="st9">Direct PLUS<v:newlineChar/></tspan><tspan
						x="4" dy="1.2em" class="st9">Direct Parent PLUS<v:newlineChar/></tspan><tspan x="4" dy="1.2em" class="st9">Graduate PLUS<v:newlineChar/></tspan><tspan
						x="4" dy="1.2em" class="st8">STATE</tspan></text>		</g>
		<g id="shape25-106" v:mID="25" v:groupContext="shape" transform="translate(535.5,-462.375)">
			<title>Sheet.25</title>
			<path d="M0 612 L180 612" class="st10"/>
		</g>
		<g id="shape26-109" v:mID="26" v:groupContext="shape" transform="translate(535.5,-482.625)">
			<title>Sheet.26</title>
			<path d="M0 612 L180 612" class="st10"/>
		</g>
		<g id="shape27-112" v:mID="27" v:groupContext="shape" transform="translate(535.5,-423)">
			<title>Sheet.27</title>
			<path d="M0 612 L180 612" class="st10"/>
		</g>
		<g id="shape28-115" v:mID="28" v:groupContext="shape" transform="translate(672.75,-434.25)">
			<title>Rectangle.28</title>
			<desc>Need</desc>
			<v:userDefs>
				<v:ud v:nameU="visVersion" v:val="VT0(14):26"/>
			</v:userDefs>
			<v:textBlock v:margins="rect(4,4,4,4)"/>
			<v:textRect cx="20.3438" cy="603" width="40.69" height="18"/>
			<rect x="0" y="594" width="40.6875" height="18" class="st11"/>
			<text x="6.05" y="606.6" class="st12" v:langID="1033"><v:paragraph v:horizAlign="1"/><v:tabList/>Need</text>		</g>
		<g id="shape29-118" v:mID="29" v:groupContext="shape" transform="translate(661.5,-384.75)">
			<title>Rectangle.29</title>
			<desc>General</desc>
			<v:userDefs>
				<v:ud v:nameU="visVersion" v:val="VT0(14):26"/>
			</v:userDefs>
			<v:textBlock v:margins="rect(4,4,4,4)"/>
			<v:textRect cx="27" cy="603" width="54.01" height="18"/>
			<rect x="0" y="594" width="54" height="18" class="st11"/>
			<text x="6.62" y="606.6" class="st12" v:langID="1033"><v:paragraph v:horizAlign="1"/><v:tabList/>General</text>		</g>
		<g id="shape30-121" v:mID="30" v:groupContext="shape" transform="translate(535.5,-328.5)">
			<title>Sheet.30</title>
			<path d="M0 612 L180 612" class="st10"/>
		</g>
		<g id="shape31-124" v:mID="31" v:groupContext="shape" transform="translate(72,-153)">
			<title>Sheet.31</title>
			<path d="M0 612 L180 612" class="st10"/>
		</g>
		<g id="shape32-127" v:mID="32" v:groupContext="shape" transform="translate(72,-274.5)">
			<title>Sheet.32</title>
			<path d="M0 612 L180 612" class="st10"/>
		</g>
	</g>
</svg>
